<?xml version="1.0" encoding="UTF-8" standalone="no"?>
<!-- Created with Inkscape (http://www.inkscape.org/) -->

<svg
   width="1080"
   height="1920"
   viewBox="0 0 216 384"
   version="1.1"
   id="svg1"
   inkscape:version="1.4.4 (dcaf3e7d9e, 2026-05-05)"
   sodipodi:docname="heads.svg"
   xmlns:inkscape="http://www.inkscape.org/namespaces/inkscape"
   xmlns:sodipodi="http://sodipodi.sourceforge.net/DTD/sodipodi-0.dtd"
   xmlns="http://www.w3.org/2000/svg"
   xmlns:svg="http://www.w3.org/2000/svg">
  <sodipodi:namedview
     id="namedview1"
     pagecolor="#cccccc"
     bordercolor="#cccccc"
     borderopacity="1"
     inkscape:showpageshadow="0"
     inkscape:pageopacity="1"
     inkscape:pagecheckerboard="0"
     inkscape:deskcolor="#cccccc"
     inkscape:document-units="px"
     showborder="false"
     borderlayer="false"
     inkscape:zoom="0.59072879"
     inkscape:cx="374.96057"
     inkscape:cy="526.46833"
     inkscape:window-width="1920"
     inkscape:window-height="998"
     inkscape:window-x="0"
     inkscape:window-y="0"
     inkscape:window-maximized="1"
     inkscape:current-layer="layer4" />
  <defs
     id="defs1" />
  <g
     inkscape:label="orbs"
     inkscape:groupmode="layer"
     id="layer1"
     sodipodi:insensitive="true">
    <g
       id="g2"
       style="opacity:0.640429">
      <circle
         style="fill:#ffffff;stroke:#1a1816;stroke-width:4;stroke-linecap:round;stroke-linejoin:round"
         id="path1"
         cx="-18.194515"
         cy="110.60349"
         r="30.164587" />
      <path
         style="fill:none;stroke:#1a1816;stroke-width:1.95993;stroke-linecap:round;stroke-linejoin:round"
         d="m 13.229506,111.0823 c 2e-5,3.8688 -13.96182003,7.00508 -31.18462,7.00508 -17.222804,0 -31.184641,-3.13628 -31.184625,-7.00508"
         id="path2" />
      <path
         style="opacity:0.479428;fill:none;stroke:#1a1816;stroke-width:1.95993;stroke-linecap:round;stroke-linejoin:round"
         d="m -49.139739,111.0823 c 9e-6,-3.86879 13.961839,-7.00507 31.184625,-7.00507 17.22277997,0 31.18461,3.13628 31.18462,7.00507"
         id="circle1" />
      <path
         style="fill:none;stroke:#1a1816;stroke-width:1.95993;stroke-linecap:round;stroke-linejoin:round"
         d="m -17.955121,79.897683 c 3.8688,-2e-5 7.00508,13.96182 7.00508,31.184617 0,17.22281 -3.13628,31.18464 -7.00508,31.18463"
         id="path3" />
      <path
         style="opacity:0.479428;fill:none;stroke:#1a1816;stroke-width:1.95993;stroke-linecap:round;stroke-linejoin:round"
         d="m -17.955121,142.26693 c -3.86879,-1e-5 -7.00507,-13.96184 -7.00507,-31.18463 0,-17.222777 3.13628,-31.184607 7.00507,-31.184617"
         id="path4" />
    </g>
    <g
       id="g8"
       style="opacity:0.640429"
       transform="matrix(0.83686079,0,0,0.83686079,97.121114,16.148082)">
      <circle
         style="fill:#ffffff;stroke:#1a1816;stroke-width:4;stroke-linecap:round;stroke-linejoin:round"
         id="circle4"
         cx="-18.194515"
         cy="110.60349"
         r="30.164587" />
      <path
         style="fill:none;stroke:#1a1816;stroke-width:1.95993;stroke-linecap:round;stroke-linejoin:round"
         d="m 13.229506,111.0823 c 2e-5,3.8688 -13.96182003,7.00508 -31.18462,7.00508 -17.222804,0 -31.184641,-3.13628 -31.184625,-7.00508"
         id="path5" />
      <path
         style="opacity:0.479428;fill:none;stroke:#1a1816;stroke-width:1.95993;stroke-linecap:round;stroke-linejoin:round"
         d="m -49.139739,111.0823 c 9e-6,-3.86879 13.961839,-7.00507 31.184625,-7.00507 17.22277997,0 31.18461,3.13628 31.18462,7.00507"
         id="path6" />
      <path
         style="fill:none;stroke:#1a1816;stroke-width:1.95993;stroke-linecap:round;stroke-linejoin:round"
         d="m -17.955121,79.897683 c 3.8688,-2e-5 7.00508,13.96182 7.00508,31.184617 0,17.22281 -3.13628,31.18464 -7.00508,31.18463"
         id="path7" />
      <path
         style="opacity:0.479428;fill:none;stroke:#1a1816;stroke-width:1.95993;stroke-linecap:round;stroke-linejoin:round"
         d="m -17.955121,142.26693 c -3.86879,-1e-5 -7.00507,-13.96184 -7.00507,-31.18463 0,-17.222777 3.13628,-31.184607 7.00507,-31.184617"
         id="path8" />
    </g>
    <g
       id="g12"
       style="opacity:0.640429"
       transform="matrix(0.66630617,0,0,0.66630617,185.25034,34.31423)">
      <circle
         style="fill:#ffffff;stroke:#1a1816;stroke-width:4;stroke-linecap:round;stroke-linejoin:round"
         id="circle8"
         cx="-18.194515"
         cy="110.60349"
         r="30.164587" />
      <path
         style="fill:none;stroke:#1a1816;stroke-width:1.95993;stroke-linecap:round;stroke-linejoin:round"
         d="m 13.229506,111.0823 c 2e-5,3.8688 -13.96182003,7.00508 -31.18462,7.00508 -17.222804,0 -31.184641,-3.13628 -31.184625,-7.00508"
         id="path9" />
      <path
         style="opacity:0.479428;fill:none;stroke:#1a1816;stroke-width:1.95993;stroke-linecap:round;stroke-linejoin:round"
         d="m -49.139739,111.0823 c 9e-6,-3.86879 13.961839,-7.00507 31.184625,-7.00507 17.22277997,0 31.18461,3.13628 31.18462,7.00507"
         id="path10" />
      <path
         style="fill:none;stroke:#1a1816;stroke-width:1.95993;stroke-linecap:round;stroke-linejoin:round"
         d="m -17.955121,79.897683 c 3.8688,-2e-5 7.00508,13.96182 7.00508,31.184617 0,17.22281 -3.13628,31.18464 -7.00508,31.18463"
         id="path11" />
      <path
         style="opacity:0.479428;fill:none;stroke:#1a1816;stroke-width:1.95993;stroke-linecap:round;stroke-linejoin:round"
         d="m -17.955121,142.26693 c -3.86879,-1e-5 -7.00507,-13.96184 -7.00507,-31.18463 0,-17.222777 3.13628,-31.184607 7.00507,-31.184617"
         id="path12" />
    </g>
  </g>
  <g
     inkscape:groupmode="layer"
     id="layer2"
     inkscape:label="bun"
     sodipodi:insensitive="true">
    <path
       style="opacity:1;fill:#ff8787;fill-opacity:1;stroke:#1a1816;stroke-width:1.8;stroke-linecap:round;stroke-linejoin:round;stroke-dasharray:none;stroke-opacity:1"
       d="m 83.700769,87.689224 9.755607,-1.613756 1.396222,-23.736373 21.100622,3.042446 -2.31836,-7.054108 -24.574101,-1.275265 z"
       id="path35"
       inkscape:transform-center-x="-14.254727"
       inkscape:transform-center-y="-14.894377" />
    <path
       style="opacity:1;fill:#dfdfdf;fill-opacity:1;stroke:#1a1816;stroke-width:1.8;stroke-linecap:round;stroke-linejoin:round;stroke-dasharray:none;stroke-opacity:1"
       d="m 84.29497,88.013924 4.251141,-29.313904 22.912449,1.138889 1.29961,14.213741 6.52241,3.949978 8.12805,-10.991093 -12.62514,-9.020979 -26.370506,-1.871089 -6.306492,31.663107 z"
       id="path36"
       inkscape:transform-center-x="-19.185293"
       inkscape:transform-center-y="-15.198377" />
    <path
       style="opacity:1;fill:#ff8787;fill-opacity:1;stroke:#1a1816;stroke-width:1.8;stroke-linecap:round;stroke-linejoin:round;stroke-dasharray:none;stroke-opacity:1"
       d="M 62.465214,91.073942 70.252204,84.979776 60.09526,63.480908 80.070586,56.032482 74.653548,50.954008 52.47755,61.618802 Z"
       id="path34" />
    <path
       style="opacity:1;fill:#dfdfdf;fill-opacity:1;stroke:#1a1816;stroke-width:1.8;stroke-linecap:round;stroke-linejoin:round;stroke-dasharray:none;stroke-opacity:1"
       d="m 80.578432,134.07168 c -5.668344,-0.38714 -12.389254,-0.56689 -16.420394,-4.57063 -6.703745,-6.65817 -9.292844,-17.92688 -7.786992,-27.25447 0.957855,-5.933168 5.181546,-11.525595 10.156946,-14.89685 5.168157,-3.501863 12.132327,-5.13434 18.282502,-4.062778 6.970951,1.214568 13.482043,5.850033 17.943936,11.341922 3.15252,3.880262 5.3774,9.052636 5.24775,14.050436 -0.21693,8.36236 -3.31961,17.97135 -9.987658,23.02241 -4.675487,3.54169 -11.58425,2.76963 -17.43609,2.36996 z"
       id="path32"
       sodipodi:nodetypes="aaaaaaaaa" />
    <path
       style="opacity:1;fill:#ffffff;fill-opacity:1;stroke:#1a1816;stroke-width:1.8;stroke-linecap:round;stroke-linejoin:round;stroke-dasharray:none;stroke-opacity:1"
       d="m 85.586035,122.45388 1.197007,7.42145 8.01995,-0.47881 1.077307,-8.01994"
       id="path13"
       sodipodi:nodetypes="cccc" />
    <path
       style="opacity:1;fill:#dfdfdf;fill-opacity:1;stroke:#1a1816;stroke-width:1.8;stroke-linecap:round;stroke-linejoin:round;stroke-dasharray:none;stroke-opacity:1"
       d="m 101.5336,112.22591 c 0,0 2.22163,6.10514 0.9007,8.70674 -0.94415,1.85952 -3.319198,3.10698 -5.404186,3.15244 -2.148246,0.0469 -5.704417,-3.00233 -5.704417,-3.00233 0,0 -3.703678,3.26217 -6.004646,3.45268 -2.714033,0.22471 -5.91993,-0.75392 -7.655926,-2.8522 -1.714768,-2.07262 -1.351045,-7.95616 -1.351045,-7.95616"
       id="path15"
       sodipodi:nodetypes="caacaac" />
    <path
       style="opacity:1;fill:#ff8787;fill-opacity:1;stroke:#1a1816;stroke-width:1.8;stroke-linecap:round;stroke-linejoin:round;stroke-dasharray:none;stroke-opacity:1"
       d="m 87.122445,115.22823 4.203252,5.70442 5.554299,-6.00465 z"
       id="path14" />
    <path
       style="opacity:1;fill:#dfdfdf;fill-opacity:1;stroke:#1a1816;stroke-width:1.8;stroke-linecap:round;stroke-linejoin:round;stroke-dasharray:none;stroke-opacity:1"
       d="M 62.645858,109.50477 C 53.542059,106.33623 51.377143,99.216406 51.377143,99.216406 c 0,0 -4.972899,13.858454 3.057546,15.932584 8.030443,2.07413 4.96872,1.54205 4.96872,1.54205"
       id="path16" />
    <path
       style="opacity:1;fill:#dfdfdf;fill-opacity:1;stroke:#1a1816;stroke-width:1.8;stroke-linecap:round;stroke-linejoin:round;stroke-dasharray:none;stroke-opacity:1"
       d="m 62.248663,113.94917 c -9.637072,0.21363 -14.154194,-5.70028 -14.154194,-5.70028 0,0 0.185124,14.72251 8.433995,13.8587 8.248876,-0.86376 5.194303,-0.29208 5.194303,-0.29208"
       id="path17"
       inkscape:transform-center-x="7.0386871"
       inkscape:transform-center-y="-4.0337941" />
    <path
       style="opacity:1;fill:#dfdfdf;fill-opacity:1;stroke:#1a1816;stroke-width:1.8;stroke-linecap:round;stroke-linejoin:round;stroke-dasharray:none;stroke-opacity:1"
       d="m 62.986986,120.5638 c -8.921892,3.64946 -15.675727,-0.13571 -15.675727,-0.13571 0,0 5.443397,13.6805 12.836334,9.9209 7.39296,-3.75953 4.745487,-2.13224 4.745487,-2.13224"
       id="path18"
       inkscape:transform-center-x="8.1027242"
       inkscape:transform-center-y="0.091927962"
       sodipodi:nodetypes="cccc" />
    <path
       style="opacity:1;fill:#dfdfdf;fill-opacity:1;stroke:#1a1816;stroke-width:1.8;stroke-linecap:round;stroke-linejoin:round;stroke-dasharray:none;stroke-opacity:1"
       d="m 80.40915,133.18295 c 0,0 1.321822,4.05201 5.843328,4.58367 0.28832,0.0339 0.776255,4.37676 0.777055,4.06718 0.0056,-2.27078 1.51793,-3.83901 1.843759,-3.86863 0.47827,-0.0435 1.26969,3.59871 1.325176,2.0002 0.04344,-1.25159 0.992777,-2.50835 1.408762,-2.70624 3.299453,-1.5696 3.360228,-5.04956 3.360228,-5.04956"
       id="path31"
       sodipodi:nodetypes="csssssc" />
    <path
       style="opacity:1;fill:#dfdfdf;fill-opacity:1;stroke:#1a1816;stroke-width:1.69301;stroke-linecap:round;stroke-linejoin:round;stroke-dasharray:none;stroke-opacity:1"
       d="m 106.7088,105.99872 c 8.37256,-3.04788 8.86732,-9.118527 8.86732,-9.118527 0,0 4.57347,13.330717 -2.81195,15.325867 -7.38543,1.99514 -5.34767,1.42348 -5.34767,1.42348"
       id="path19"
       sodipodi:nodetypes="ccsc" />
    <path
       style="opacity:1;fill:#dfdfdf;fill-opacity:1;stroke:#1a1816;stroke-width:1.69301;stroke-linecap:round;stroke-linejoin:round;stroke-dasharray:none;stroke-opacity:1"
       d="m 106.59529,110.99208 c 8.863,0.20549 11.99984,-5.42336 11.99984,-5.42336 0,0 -0.17026,14.16187 -7.75656,13.33095 -7.5863,-0.83087 -5.25588,-1.35826 -5.25588,-1.35826"
       id="path20"
       inkscape:transform-center-x="-6.473326"
       inkscape:transform-center-y="-3.8801853"
       sodipodi:nodetypes="cccc" />
    <path
       style="opacity:1;fill:#dfdfdf;fill-opacity:1;stroke:#1a1816;stroke-width:1.69301;stroke-linecap:round;stroke-linejoin:round;stroke-dasharray:none;stroke-opacity:1"
       d="m 105.46366,117.76921 c 8.20526,3.51049 13.85177,-0.48508 13.85177,-0.48508 0,0 -5.00617,13.15954 -11.8053,9.54311 -6.79913,-3.61637 -5.14236,-2.76925 -5.14236,-2.76925"
       id="path21"
       inkscape:transform-center-x="-7.4518939"
       inkscape:transform-center-y="0.088428825"
       sodipodi:nodetypes="cccc" />
    <path
       style="opacity:1;fill:#dfdfdf;fill-opacity:1;stroke:#1a1816;stroke-width:1.8;stroke-linecap:round;stroke-linejoin:round;stroke-dasharray:none;stroke-opacity:1"
       d="M 63.142344,91.073942 52.816116,63.311626 73.46857,53.323962 l 7.956274,11.84977 7.61771,0.338566 1.862106,-13.542594 -15.4047,-1.862108 -24.038104,11.003358 9.649098,30.8094 z"
       id="path33" />
    <g
       id="g30"
       transform="matrix(0.94270826,0,0,1.0050233,19.288971,-1.0079408)">
      <circle
         style="opacity:1;fill:#ffffff;fill-opacity:1;stroke:#1a1816;stroke-width:1.8;stroke-linecap:round;stroke-linejoin:round;stroke-dasharray:none;stroke-opacity:1"
         id="circle28"
         cx="80.738159"
         cy="105.33665"
         r="4.7880297" />
      <circle
         style="opacity:1;fill:#857137;fill-opacity:1;stroke:none;stroke-width:0.648243;stroke-linecap:round;stroke-linejoin:round;stroke-dasharray:none;stroke-opacity:1"
         id="circle29"
         cx="80.738159"
         cy="105.33665"
         r="1.7243363" />
      <path
         id="path29"
         style="opacity:1;fill:#483e1e;fill-opacity:1;stroke-width:0.648243;stroke-linecap:round;stroke-linejoin:round"
         d="m 82.462495,105.33665 c 0.04231,0.0117 -3.448672,0 -3.448672,0 -2e-6,-0.95233 0.77201,-1.72434 1.724336,-1.72434 0.952326,0 1.724338,0.77201 1.724336,1.72434 z"
         sodipodi:nodetypes="ccsc" />
      <circle
         style="opacity:1;fill:#000000;fill-opacity:1;stroke:none;stroke-width:0.2062;stroke-linecap:round;stroke-linejoin:round;stroke-dasharray:none;stroke-opacity:1"
         id="circle30"
         cx="80.738159"
         cy="105.33665"
         r="0.54873306" />
      <path
         style="opacity:1;fill:#000000;fill-opacity:1;stroke:none;stroke-width:0.2062;stroke-linecap:round;stroke-linejoin:round;stroke-dasharray:none;stroke-opacity:1"
         d="m 79.594478,106.57386 0.782932,-0.81467"
         id="path30" />
      <rect
         style="opacity:1;fill:#ffffff;fill-opacity:1;stroke:none;stroke-width:0.176145;stroke-linecap:round;stroke-linejoin:round;stroke-dasharray:none;stroke-opacity:1"
         id="rect30"
         width="2.79316"
         height="1.1426563"
         x="77.849373"
         y="104.07238"
         ry="0" />
    </g>
    <path
       style="opacity:1;fill:#dfdfdf;fill-opacity:1;stroke:#1a1816;stroke-width:1.8;stroke-linecap:round;stroke-linejoin:round;stroke-dasharray:none;stroke-opacity:1"
       d="m 88.026859,99.961269 c -0.566694,3.314441 0.570073,3.789791 1.269619,4.993831 0,0 3.463228,-3.55306 5.755602,-4.06278 2.657967,-0.59101 8.04091,1.4389 8.04091,1.4389 0.0661,-1.75993 -0.63136,-3.233525 -2.36995,-4.316699"
       id="path38"
       sodipodi:nodetypes="ccacc" />
    <g
       id="g27">
      <circle
         style="opacity:1;fill:#ffffff;fill-opacity:1;stroke:#1a1816;stroke-width:1.8;stroke-linecap:round;stroke-linejoin:round;stroke-dasharray:none;stroke-opacity:1"
         id="path22"
         cx="80.738159"
         cy="105.33665"
         r="4.7880297" />
      <circle
         style="opacity:1;fill:#857137;fill-opacity:1;stroke:none;stroke-width:0.648243;stroke-linecap:round;stroke-linejoin:round;stroke-dasharray:none;stroke-opacity:1"
         id="circle22"
         cx="80.738159"
         cy="105.33665"
         r="1.7243363" />
      <path
         id="circle27"
         style="opacity:1;fill:#483e1e;fill-opacity:1;stroke-width:0.648243;stroke-linecap:round;stroke-linejoin:round"
         d="m 82.462495,105.33665 c 0.04231,0.0117 -3.448672,0 -3.448672,0 -2e-6,-0.95233 0.77201,-1.72434 1.724336,-1.72434 0.952326,0 1.724338,0.77201 1.724336,1.72434 z"
         sodipodi:nodetypes="ccsc" />
      <circle
         style="opacity:1;fill:#000000;fill-opacity:1;stroke:none;stroke-width:0.2062;stroke-linecap:round;stroke-linejoin:round;stroke-dasharray:none;stroke-opacity:1"
         id="circle23"
         cx="80.738159"
         cy="105.33665"
         r="0.54873306" />
      <path
         style="opacity:1;fill:#000000;fill-opacity:1;stroke:none;stroke-width:0.2062;stroke-linecap:round;stroke-linejoin:round;stroke-dasharray:none;stroke-opacity:1"
         d="m 79.594478,106.57386 0.782932,-0.81467"
         id="path23" />
      <rect
         style="opacity:1;fill:#ffffff;fill-opacity:1;stroke:none;stroke-width:0.176145;stroke-linecap:round;stroke-linejoin:round;stroke-dasharray:none;stroke-opacity:1"
         id="rect27"
         width="2.79316"
         height="1.1426563"
         x="77.849373"
         y="104.07238"
         ry="0" />
    </g>
    <path
       style="opacity:1;fill:#dfdfdf;fill-opacity:1;stroke:#1a1816;stroke-width:1.8;stroke-linecap:round;stroke-linejoin:round;stroke-dasharray:none;stroke-opacity:1"
       d="m 72.368235,100.72304 c -0.566694,3.31444 0.570073,3.78979 1.269619,4.99383 0,0 3.463228,-3.55306 5.755602,-4.06278 2.657967,-0.59101 8.040914,1.4389 8.040914,1.4389 0.06611,-1.75993 -0.631367,-3.233524 -2.369953,-4.316698"
       id="path37"
       sodipodi:nodetypes="ccacc" />
  </g>
  <g
     inkscape:groupmode="layer"
     id="layer3"
     inkscape:label="turt"
     sodipodi:insensitive="true">
    <path
       style="opacity:1;fill:#34df9c;fill-opacity:1;stroke:#1a1816;stroke-width:1.8;stroke-linecap:round;stroke-linejoin:round;stroke-dasharray:none;stroke-opacity:1"
       d="m 155.40126,114.77348 -2.03139,12.69618 14.21973,5.41704 24.20738,-3.04708 7.61771,-10.49551 -4.57062,-9.47982 -6.7713,8.12556 -19.46748,3.04708 z"
       id="path39" />
    <g
       id="g30-3"
       transform="matrix(0.94270826,0,0,1.0050233,108.16224,1.1927307)">
      <circle
         style="opacity:1;fill:#ffffff;fill-opacity:1;stroke:#1a1816;stroke-width:1.8;stroke-linecap:round;stroke-linejoin:round;stroke-dasharray:none;stroke-opacity:1"
         id="circle28-5"
         cx="80.738159"
         cy="105.33665"
         r="4.7880297" />
      <circle
         style="opacity:1;fill:#857137;fill-opacity:1;stroke:none;stroke-width:0.648243;stroke-linecap:round;stroke-linejoin:round;stroke-dasharray:none;stroke-opacity:1"
         id="circle29-6"
         cx="80.738159"
         cy="105.33665"
         r="1.7243363" />
      <path
         id="path29-2"
         style="opacity:1;fill:#483e1e;fill-opacity:1;stroke-width:0.648243;stroke-linecap:round;stroke-linejoin:round"
         d="m 82.462495,105.33665 c 0.04231,0.0117 -3.448672,0 -3.448672,0 -2e-6,-0.95233 0.77201,-1.72434 1.724336,-1.72434 0.952326,0 1.724338,0.77201 1.724336,1.72434 z"
         sodipodi:nodetypes="ccsc" />
      <circle
         style="opacity:1;fill:#000000;fill-opacity:1;stroke:none;stroke-width:0.2062;stroke-linecap:round;stroke-linejoin:round;stroke-dasharray:none;stroke-opacity:1"
         id="circle30-9"
         cx="80.738159"
         cy="105.33665"
         r="0.54873306" />
      <path
         style="opacity:1;fill:#000000;fill-opacity:1;stroke:none;stroke-width:0.2062;stroke-linecap:round;stroke-linejoin:round;stroke-dasharray:none;stroke-opacity:1"
         d="m 79.594478,106.57386 0.782932,-0.81467"
         id="path30-1" />
      <rect
         style="opacity:1;fill:#ffffff;fill-opacity:1;stroke:none;stroke-width:0.176145;stroke-linecap:round;stroke-linejoin:round;stroke-dasharray:none;stroke-opacity:1"
         id="rect30-2"
         width="2.79316"
         height="1.1426563"
         x="77.849373"
         y="104.07238"
         ry="0" />
    </g>
    <g
       id="g27-7"
       transform="translate(88.873271,2.2006715)">
      <circle
         style="opacity:1;fill:#ffffff;fill-opacity:1;stroke:#1a1816;stroke-width:1.8;stroke-linecap:round;stroke-linejoin:round;stroke-dasharray:none;stroke-opacity:1"
         id="path22-0"
         cx="80.738159"
         cy="105.33665"
         r="4.7880297" />
      <circle
         style="opacity:1;fill:#857137;fill-opacity:1;stroke:none;stroke-width:0.648243;stroke-linecap:round;stroke-linejoin:round;stroke-dasharray:none;stroke-opacity:1"
         id="circle22-9"
         cx="80.738159"
         cy="105.33665"
         r="1.7243363" />
      <path
         id="circle27-3"
         style="opacity:1;fill:#483e1e;fill-opacity:1;stroke-width:0.648243;stroke-linecap:round;stroke-linejoin:round"
         d="m 82.462495,105.33665 c 0.04231,0.0117 -3.448672,0 -3.448672,0 -2e-6,-0.95233 0.77201,-1.72434 1.724336,-1.72434 0.952326,0 1.724338,0.77201 1.724336,1.72434 z"
         sodipodi:nodetypes="ccsc" />
      <circle
         style="opacity:1;fill:#000000;fill-opacity:1;stroke:none;stroke-width:0.2062;stroke-linecap:round;stroke-linejoin:round;stroke-dasharray:none;stroke-opacity:1"
         id="circle23-6"
         cx="80.738159"
         cy="105.33665"
         r="0.54873306" />
      <path
         style="opacity:1;fill:#000000;fill-opacity:1;stroke:none;stroke-width:0.2062;stroke-linecap:round;stroke-linejoin:round;stroke-dasharray:none;stroke-opacity:1"
         d="m 79.594478,106.57386 0.782932,-0.81467"
         id="path23-0" />
      <rect
         style="opacity:1;fill:#ffffff;fill-opacity:1;stroke:none;stroke-width:0.176145;stroke-linecap:round;stroke-linejoin:round;stroke-dasharray:none;stroke-opacity:1"
         id="rect27-6"
         width="2.79316"
         height="1.1426563"
         x="77.849373"
         y="104.07238"
         ry="0" />
    </g>
    <path
       style="opacity:1;fill:#34df9c;fill-opacity:1;stroke:#1a1816;stroke-width:1.8;stroke-linecap:round;stroke-linejoin:round;stroke-dasharray:none;stroke-opacity:1"
       d="m 161.15687,107.32506 15.4047,-1.18498 -1.0157,-6.263452"
       id="path40" />
    <path
       style="opacity:1;fill:#34df9c;fill-opacity:1;stroke:#1a1816;stroke-width:1.8;stroke-linecap:round;stroke-linejoin:round;stroke-dasharray:none;stroke-opacity:1"
       d="m 190.54908,104.43675 -10.86641,1.73244 -0.90056,-6.281049"
       id="path41"
       sodipodi:nodetypes="ccc" />
  </g>
  <g
     inkscape:groupmode="layer"
     id="layer4"
     inkscape:label="badger">
    <path
       style="fill:#dfdbd2;fill-opacity:1;stroke:#1a1816;stroke-width:1.8;stroke-linecap:round;stroke-linejoin:round"
       d="m -42.65917,97.675958 c -0.846412,0.169282 -12.188336,-5.417038 -12.019052,-9.310534 0.169282,-3.893494 0.67713,-9.987662 0.67713,-9.987662 L -55.8632,75.669244 c 0,0 5.417038,1.184976 7.279144,2.031388 1.862108,0.846412 18.282502,1.523542 20.313892,5.417038"
       id="path26" />
    <path
       style="fill:#dfdbd2;fill-opacity:1;stroke:#1a1816;stroke-width:1.8;stroke-linecap:round;stroke-linejoin:round;stroke-dasharray:none"
       d="M -2.6293838,83.797419 C 1.5923133,77.836051 6.77897,76.489937 10.759427,75.91303 c 3.980457,-0.576908 10.493933,0.576907 10.493933,0.576907 0,0 -0.48248,2.115323 -1.447439,4.230646 -0.96496,2.115325 -8.443394,12.884244 -10.9764125,16.537986"
       id="path27"
       sodipodi:nodetypes="cscsc" />
    <path
       style="fill:#dfdbd2;stroke:#1a1816;stroke-width:1.8;stroke-linecap:round;stroke-linejoin:round;fill-opacity:1"
       d="m -36.903568,106.47864 c -1.35426,0.84642 -10.834076,2.36996 -15.743266,2.03139 -4.90919,-0.33856 -16.251112,-4.23206 -16.251112,-4.23206 l 2.369954,2.8778 c 0,0 10.156946,4.73991 13.711876,4.73991 3.55493,0 -6.26345,4.23206 -11.003358,3.21637 -4.739908,-1.0157 -12.526898,-6.09417 -9.81838,-4.57063 2.708518,1.52354 1.35426,5.41704 2.03139,5.92489 0.677128,0.50784 2.369954,4.40134 5.58632,4.40134 3.216366,0 9.987662,0.33856 8.971968,1.18498 -1.015696,0.84641 -16.420396,3.72421 -14.050442,4.57062 2.369954,0.84641 12.865464,2.53924 16.08183,3.55493 3.216366,1.0157 12.357618,3.8935 15.066136,4.06278 2.708518,0.16928 2.369954,1.18498 -1.184976,2.20067 -3.554932,1.0157 -5.247756,2.70852 0.846412,2.53924 6.094166,-0.16928 8.633402,-0.67713 13.711876,0 5.078472,0.67713 6.940579,0.33856 6.940579,0.33856 0,0 3.724213,0 8.464121,0.16929 4.739908,0.16928 21.498868,-4.90919 23.02241,-5.58632 1.523541,-0.67713 14.389006,-4.73991 17.943936,-7.95628 3.554932,-3.21636 -0.846412,0.33857 -4.739908,0.67713 -3.893496,0.33857 -6.263449,0 -8.294838,0.33857 -2.031389,0.33856 -5.247755,1.35426 -2.031389,0.33856 3.216366,-1.01569 14.389005,-5.24775 15.743265,-6.60201 1.35426,-1.35426 6.094168,-6.94058 3.216366,-4.73991 -2.877802,2.20067 -14.389006,4.40134 -14.389006,4.40134 l -1.184977,0.67713 c 0,0 -6.940579,1.0157 1.862107,-4.23206 8.802686,-5.24775 9.310534,-9.14125 9.310534,-9.14125 0,0 -6.771298,3.38565 -8.464122,4.23206 -1.692824,0.84641 -4.401343,1.52354 -4.401343,1.52354 0,0 11.680487,-4.7399 13.373311,-8.29484 1.692824,-3.55493 8.125556,-7.109858 1.35426,-4.57062 -6.771298,2.53924 -8.633404,3.21637 -10.326228,4.73991 -1.692824,1.52354 -5.755602,3.04708 -6.602014,3.21636 -0.846413,0.16929 -4.062779,0.50785 -4.062779,0.50785"
       id="path24" />
    <path
       style="fill:#413f3d;fill-opacity:1;stroke:none;stroke-width:1.8;stroke-linecap:round;stroke-linejoin:round;stroke-dasharray:none"
       d="m -57.556024,111.21855 7.61771,2.20067 c 0,0 13.881158,2.20067 17.097524,2.53924 3.216366,0.33856 19.975326,-2.53924 19.975326,-2.53924 0,0 10.6647926,0.16929 13.5425937,1.18498 2.8778011,1.01569 16.5896773,-0.67713 16.5896773,-0.67713 l 9.310533,-5.92488 c 0,0 3.724214,-4.90919 4.739908,-5.58632 1.015694,-0.67713 1.015694,-2.53924 1.015694,-2.53924 L 19.128914,104.9551 8.9719684,109.52573 9.3105332,98.183806 8.802686,94.96744 10.326228,83.964082 c 0,0 -1.6928244,-2.877802 -3.3856486,-1.862106 -1.6928242,1.015694 -9.4798158,1.692824 -9.4798158,1.692824 0,0 -9.3105336,-3.38565 -10.8340746,-3.38565 -1.523542,0 -16.251113,2.369954 -16.251113,2.369954 l -10.156946,-0.677128 -4.90919,3.385648 1.523542,10.664792 0.507848,1.862106 6.771296,7.448428 c 0,0 -2.8778,2.70852 -3.55493,2.8778 -0.67713,0.16928 -19.636762,1.0157 -19.636762,1.0157 l -3.55493,-3.8935 -4.232062,-0.50785 z"
       id="path28" />
    <g
       id="g30-3-7"
       transform="matrix(0.94270826,0,0,1.0050233,-78.336509,0.95332923)">
      <circle
         style="opacity:1;fill:#ffffff;fill-opacity:1;stroke:#1a1816;stroke-width:1.8;stroke-linecap:round;stroke-linejoin:round;stroke-dasharray:none;stroke-opacity:1"
         id="circle28-5-9"
         cx="80.738159"
         cy="105.33665"
         r="4.7880297" />
      <circle
         style="opacity:1;fill:#857137;fill-opacity:1;stroke:none;stroke-width:0.648243;stroke-linecap:round;stroke-linejoin:round;stroke-dasharray:none;stroke-opacity:1"
         id="circle29-6-2"
         cx="80.738159"
         cy="105.33665"
         r="1.7243363" />
      <path
         id="path29-2-0"
         style="opacity:1;fill:#483e1e;fill-opacity:1;stroke-width:0.648243;stroke-linecap:round;stroke-linejoin:round"
         d="m 82.462495,105.33665 c 0.04231,0.0117 -3.448672,0 -3.448672,0 -2e-6,-0.95233 0.77201,-1.72434 1.724336,-1.72434 0.952326,0 1.724338,0.77201 1.724336,1.72434 z"
         sodipodi:nodetypes="ccsc" />
      <circle
         style="opacity:1;fill:#000000;fill-opacity:1;stroke:none;stroke-width:0.2062;stroke-linecap:round;stroke-linejoin:round;stroke-dasharray:none;stroke-opacity:1"
         id="circle30-9-2"
         cx="80.738159"
         cy="105.33665"
         r="0.54873306" />
      <path
         style="opacity:1;fill:#000000;fill-opacity:1;stroke:none;stroke-width:0.2062;stroke-linecap:round;stroke-linejoin:round;stroke-dasharray:none;stroke-opacity:1"
         d="m 79.594478,106.57386 0.782932,-0.81467"
         id="path30-1-3" />
      <rect
         style="opacity:1;fill:#ffffff;fill-opacity:1;stroke:none;stroke-width:0.176145;stroke-linecap:round;stroke-linejoin:round;stroke-dasharray:none;stroke-opacity:1"
         id="rect30-2-7"
         width="2.79316"
         height="1.1426563"
         x="77.849373"
         y="104.07238"
         ry="0" />
    </g>
    <g
       id="g27-7-5"
       transform="translate(-101.90772,2.2998348)">
      <circle
         style="opacity:1;fill:#ffffff;fill-opacity:1;stroke:#1a1816;stroke-width:1.8;stroke-linecap:round;stroke-linejoin:round;stroke-dasharray:none;stroke-opacity:1"
         id="path22-0-9"
         cx="80.738159"
         cy="105.33665"
         r="4.7880297" />
      <circle
         style="opacity:1;fill:#857137;fill-opacity:1;stroke:none;stroke-width:0.648243;stroke-linecap:round;stroke-linejoin:round;stroke-dasharray:none;stroke-opacity:1"
         id="circle22-9-2"
         cx="80.738159"
         cy="105.33665"
         r="1.7243363" />
      <path
         id="circle27-3-2"
         style="opacity:1;fill:#483e1e;fill-opacity:1;stroke-width:0.648243;stroke-linecap:round;stroke-linejoin:round"
         d="m 82.462495,105.33665 c 0.04231,0.0117 -3.448672,0 -3.448672,0 -2e-6,-0.95233 0.77201,-1.72434 1.724336,-1.72434 0.952326,0 1.724338,0.77201 1.724336,1.72434 z"
         sodipodi:nodetypes="ccsc" />
      <circle
         style="opacity:1;fill:#000000;fill-opacity:1;stroke:none;stroke-width:0.2062;stroke-linecap:round;stroke-linejoin:round;stroke-dasharray:none;stroke-opacity:1"
         id="circle23-6-8"
         cx="80.738159"
         cy="105.33665"
         r="0.54873306" />
      <path
         style="opacity:1;fill:#000000;fill-opacity:1;stroke:none;stroke-width:0.2062;stroke-linecap:round;stroke-linejoin:round;stroke-dasharray:none;stroke-opacity:1"
         d="m 79.594478,106.57386 0.782932,-0.81467"
         id="path23-0-9" />
      <rect
         style="opacity:1;fill:#ffffff;fill-opacity:1;stroke:none;stroke-width:0.176145;stroke-linecap:round;stroke-linejoin:round;stroke-dasharray:none;stroke-opacity:1"
         id="rect27-6-7"
         width="2.79316"
         height="1.1426563"
         x="77.849373"
         y="104.07238"
         ry="0" />
    </g>
    <path
       style="fill:#1a1816;fill-opacity:1;stroke:#1a1816;stroke-width:1.8;stroke-linecap:round;stroke-linejoin:round"
       d="m -14.219724,116.80487 5.2477556,6.7713 6.432732,-7.27915 z"
       id="path25" />
  </g>
</svg>
